<svg width="160" height="200" viewBox="0 0 160 200" fill="none" xmlns="http://www.w3.org/2000/svg">
<g clip-path="url(#clip0_252_22)">
<path d="M0 80V160C9.07412 156.467 17.3152 151.087 24.2009 144.201C31.0865 137.315 36.4666 129.074 40 120L0 80Z" fill="#324FFF"/>
<path d="M40 120C45.7 147.3 45.3 167 40 200L0 160L40 120Z" fill="#283198"/>
<path d="M40 120V200L80 160C69.3261 144.249 55.7511 130.674 40 120Z" fill="#00FFFF"/>
<path d="M80 0V80C80 80 48.3 55.7 40 40L80 0Z" fill="#324FFF"/>
<path d="M40 40V120C57.5186 111.638 71.638 97.5186 80 80L40 40Z" fill="#324FFF"/>
<path d="M80 80C85.9333 106.337 85.9333 133.663 80 160L40 120L80 80Z" fill="#00E8FF"/>
<path d="M80 80V160C97 152.5 111.5 141 120 120C114.1 103 101.9 89.1 80 80Z" fill="#283198"/>
<path d="M120 40V120L80 80L120 40Z" fill="#283198"/>
<path d="M120 120C126.1 147 124.9 173.6 120 200L80 160L120 120Z" fill="#00E8FF"/>
<path d="M120 120V200L160 160C154.6 145 141.7 132.1 120 120Z" fill="#324FFF"/>
<path d="M160 80V160L120 120L160 80Z" fill="#324FFF"/>
</g>
<defs>
<clipPath id="clip0_252_22">
<rect width="160" height="200" fill="white"/>
</clipPath>
</defs>
</svg>
